<?xml version="1.0" standalone="no"?>
<!DOCTYPE svg PUBLIC "-//W3C//DTD SVG 20010904//EN"
 "http://www.w3.org/TR/2001/REC-SVG-20010904/DTD/svg10.dtd">
<svg version="1.0" xmlns="http://www.w3.org/2000/svg"
 width="2084.000000pt" height="1191.000000pt" viewBox="0 0 2084.000000 1191.000000"
 preserveAspectRatio="xMidYMid meet">

<g transform="translate(0.000000,1191.000000) scale(0.100000,-0.100000)"
fill="#000000" stroke="none">
<path d="M8295 6264 c-249 -40 -450 -205 -520 -427 -136 -426 164 -838 609
-837 184 1 324 54 449 170 80 75 127 146 164 248 34 90 43 265 19 366 -53 224
-227 402 -451 461 -62 16 -218 27 -270 19z m238 -267 c112 -51 198 -170 216
-299 18 -135 -19 -257 -109 -352 -71 -75 -146 -108 -248 -107 -124 0 -217 45
-287 141 -164 223 -71 555 178 636 66 22 181 13 250 -19z"/>
<path d="M9732 6256 c-41 -8 -112 -33 -160 -56 -112 -54 -231 -169 -285 -277
-74 -151 -88 -355 -35 -510 69 -197 240 -351 444 -399 107 -25 304 -15 407 20
84 28 172 79 225 129 l32 31 0 217 0 218 -107 3 c-60 2 -120 2 -135 0 l-28 -3
0 -163 c0 -119 -3 -166 -12 -174 -61 -49 -276 -64 -361 -25 -124 57 -205 181
-214 327 -14 219 104 379 304 416 111 20 217 -8 324 -86 l46 -33 69 101 69
101 -40 34 c-50 43 -162 98 -240 118 -87 22 -217 27 -303 11z"/>
<path d="M10610 5625 l0 -615 135 0 135 0 0 380 c0 209 3 380 8 380 4 -1 137
-172 295 -380 l288 -380 135 0 134 0 0 615 0 615 -135 0 -135 0 -2 -394 -3
-393 -300 393 -300 394 -127 0 -128 0 0 -615z"/>
<path d="M12050 5625 l0 -615 135 0 135 0 0 615 0 615 -135 0 -135 0 0 -615z"/>
<path d="M12480 6165 l0 -75 215 0 215 0 0 -540 0 -540 85 0 85 0 0 540 0 540
210 0 210 0 0 75 0 75 -510 0 -510 0 0 -75z"/>
<path d="M13730 5634 c-151 -334 -276 -610 -278 -615 -2 -5 37 -9 86 -9 l89 0
68 155 68 155 327 0 328 0 68 -155 68 -155 176 0 175 0 179 251 c98 137 183
248 187 247 5 -2 89 -113 187 -248 l178 -245 102 -3 102 -3 -166 228 c-92 125
-196 267 -232 316 -35 48 -62 93 -59 101 3 7 98 140 211 294 113 155 206 284
206 287 0 3 -42 5 -92 5 l-93 -1 -169 -235 c-92 -129 -170 -233 -173 -230 -3
3 -81 108 -172 233 l-166 228 -98 3 c-53 1 -97 0 -97 -3 0 -3 95 -136 211
-296 137 -189 209 -295 205 -305 -8 -21 -429 -595 -433 -590 -2 1 -124 270
-273 597 l-269 594 -88 3 -89 3 -274 -607z m620 -166 c0 -4 -117 -8 -260 -8
-143 0 -260 3 -260 7 0 5 152 354 230 528 l31 69 130 -294 c71 -161 129 -297
129 -302z"/>
<path d="M20 15 c0 -13 1163 -15 10410 -15 9247 0 10410 2 10410 15 0 13
-1163 15 -10410 15 -9247 0 -10410 -2 -10410 -15z"/>
</g>
</svg>
