<?xml version="1.0" encoding="UTF-8"?>
<svg version="1.1" xmlns="http://www.w3.org/2000/svg" width="600" height="600">
<path d="M0 0 C2.67576273 1.7816341 5.50341653 3.79281839 6.640625 6.86328125 C7.88389414 14.5301076 6.0287631 21.36011911 4.203125 28.80078125 C3.94208984 29.9196875 3.68105469 31.03859375 3.41210938 32.19140625 C3.02055664 33.81175781 3.02055664 33.81175781 2.62109375 35.46484375 C2.38543701 36.44146973 2.14978027 37.4180957 1.90698242 38.42431641 C0.43797007 42.95890123 -2.04428249 46.4436764 -5.171875 49.98828125 C-5.70167969 50.59285156 -6.23148437 51.19742188 -6.77734375 51.8203125 C-7.17566406 52.26761719 -7.57398438 52.71492188 -7.984375 53.17578125 C-7.324375 53.83578125 -6.664375 54.49578125 -5.984375 55.17578125 C-5.984375 56.16578125 -5.984375 57.15578125 -5.984375 58.17578125 C-6.644375 58.17578125 -7.304375 58.17578125 -7.984375 58.17578125 C-7.489375 61.14578125 -7.489375 61.14578125 -6.984375 64.17578125 C-6.324375 64.17578125 -5.664375 64.17578125 -4.984375 64.17578125 C-4.88125 63.06203125 -4.778125 61.94828125 -4.671875 60.80078125 C-4.04131852 55.83625907 -3.06907674 50.74608891 -0.984375 46.17578125 C0.005625 45.84578125 0.995625 45.51578125 2.015625 45.17578125 C4.42670093 46.47244414 6.66482223 47.81318377 8.953125 49.30078125 C13.73623708 52.31824101 18.32206248 54.86138753 23.640625 56.86328125 C28.73978637 58.87827244 31.21745958 60.41890003 34.015625 65.17578125 C37.72902705 75.94464718 37.17734073 87.98490983 37.140625 99.23828125 C37.14449219 100.42744141 37.14835937 101.61660156 37.15234375 102.84179688 C37.1328796 120.56390523 34.24343541 130.59190707 23.22265625 144.390625 C20.10392258 147.81662701 20.10392258 147.81662701 19.140625 152.05078125 C19.97577829 154.38960657 19.97577829 154.38960657 22.140625 156.67578125 C22.759375 157.50078125 23.378125 158.32578125 24.015625 159.17578125 C23.73507576 160.52121093 23.38865695 161.85300536 23.015625 163.17578125 C22.25471711 172.68089289 23.27482498 181.72280212 24.82421875 191.09375 C34.74159592 253.46216223 34.74159592 253.46216223 31.671875 282.796875 C30.7412518 291.81166182 30.83235419 300.81150678 30.890625 309.86328125 C30.89675812 311.05416351 30.89675812 311.05416351 30.90301514 312.269104 C30.92200545 315.81584672 30.94888781 319.36230516 30.98388672 322.90893555 C31.00741895 325.33112624 31.015625 327.75347625 31.015625 330.17578125 C32.69112942 332.73646719 32.69112942 332.73646719 34.890625 335.23828125 C37.07844621 337.8456309 39.12572199 340.34092674 41.015625 343.17578125 C41.08023926 342.07572754 41.14485352 340.97567383 41.21142578 339.84228516 C42.3127415 324.67456277 45.76628389 310.23349028 49.40966797 295.50152588 C50.21023802 292.25444218 50.99752458 289.00414828 51.78515625 285.75390625 C52.70016965 281.97945349 53.61605869 278.20525749 54.53826904 274.43255615 C56.38921929 266.84550684 58.16880889 259.24874958 59.78048706 251.60702515 C60.40370692 248.69507854 61.1001623 245.94368658 62.12060547 243.14208984 C63.90423753 237.23070699 63.04735441 232.40889744 61.046875 226.68359375 C60.64082031 225.48347656 60.23476563 224.28335938 59.81640625 223.046875 C58.95163923 220.55644987 58.08446449 218.06685944 57.21484375 215.578125 C53.44779639 204.42048948 53.44779639 204.42048948 53.95507812 198.33154297 C54.09328797 195.97404218 54.09328797 195.97404218 53.43969727 192.88989258 C52.96638884 188.74456095 53.53521833 185.75654734 54.44921875 181.6953125 C56.43142559 171.79307619 56.29090499 162.06346658 56.12713623 152.00335693 C56.0431059 146.61966016 56.01711582 141.23582634 55.99609375 135.8515625 C55.99172302 134.77789429 55.98735229 133.70422607 55.98284912 132.59802246 C55.96778828 122.56292512 56.32034485 112.56823895 56.890625 102.55078125 C56.93019318 101.80492767 56.96976135 101.0590741 57.01052856 100.2906189 C57.12412564 98.1968615 57.25038102 96.10436108 57.3828125 94.01171875 C57.45612793 92.8520459 57.52944336 91.69237305 57.60498047 90.49755859 C58.20530083 85.64145942 58.73719759 81.45420866 62.265625 77.92578125 C65.015625 76.17578125 65.015625 76.17578125 68.265625 74.67578125 C71.06169069 73.49989505 71.06169069 73.49989505 71.80859375 71.5078125 C72.10670743 68.14981498 71.10676552 65.56003276 70.078125 62.36328125 C66.70248098 51.87017762 68.46962409 46.18697773 73.265625 36.61328125 C73.75675781 35.59814453 74.24789062 34.58300781 74.75390625 33.53710938 C82.05215333 18.63895433 82.05215333 18.63895433 88.015625 16.17578125 C92.68630145 15.16653961 96.64282469 14.77978116 101.265625 16.11328125 C107.14495054 20.5227754 110.7665794 27.19472702 114.71875 33.29296875 C116.01359567 35.29456787 116.01359567 35.29456787 118.015625 37.17578125 C117.9921875 39.55859375 117.9921875 39.55859375 117.640625 42.30078125 C117.52976562 43.21085937 117.41890625 44.1209375 117.3046875 45.05859375 C117.20929688 45.75726563 117.11390625 46.4559375 117.015625 47.17578125 C117.655 47.48515625 118.294375 47.79453125 118.953125 48.11328125 C121.015625 49.17578125 121.015625 49.17578125 122.015625 50.17578125 C122.22782822 52.78411247 122.39218839 55.37553957 122.515625 57.98828125 C122.57486756 64.21617823 122.57486756 64.21617823 124.015625 70.17578125 C124.94375 70.46453125 125.871875 70.75328125 126.828125 71.05078125 C131.03849472 72.53679409 131.82141388 74.34275996 134.015625 78.17578125 C135.08056641 81.40454102 135.08056641 81.40454102 135.8671875 84.8671875 C136.16109375 86.14271484 136.455 87.41824219 136.7578125 88.73242188 C136.9031543 89.39218018 137.04849609 90.05193848 137.19824219 90.73168945 C137.6347653 92.71170241 138.08903387 94.68692945 138.546875 96.66210938 C139.94440451 102.82422512 141.17774968 108.95144054 142.07421875 115.20703125 C142.74780416 119.84006254 143.69981926 123.78190602 145.453125 128.11328125 C150.85960064 142.5092223 154.19842018 158.63228289 147.640625 173.23828125 C146.015625 175.17578125 146.015625 175.17578125 143.953125 175.67578125 C143.31375 175.84078125 142.674375 176.00578125 142.015625 176.17578125 C139.76790604 180.34349831 139.70165709 184.43502294 139.66845703 189.05981445 C139.64825154 190.23409595 139.64825154 190.23409595 139.62763786 191.4321003 C139.59941445 193.1346922 139.57552111 194.83736015 139.55545044 196.54006767 C139.52289742 199.27188513 139.47852183 202.00328432 139.4309082 204.73487854 C139.36351113 208.63169666 139.29995924 212.52854704 139.23931885 216.42547607 C138.7032962 250.11314377 138.04996449 283.68975101 134.015625 317.17578125 C133.92863342 317.90079834 133.84164185 318.62581543 133.75201416 319.37280273 C130.52620995 345.85137319 130.52620995 345.85137319 124.015625 353.17578125 C120.42298048 354.37332942 117.78845026 354.50673083 114.015625 354.17578125 C109.705661 351.3435192 107.29692513 346.06925729 106.015625 341.17578125 C105.37974731 333.17149636 106.44356904 325.06593597 107.18392944 317.09527588 C107.39532706 314.81250625 107.59935572 312.52916749 107.80200195 310.24560547 C108.35998419 304.00521327 108.92225229 297.76904127 109.66015625 291.546875 C113.06544134 262.3918759 112.55299605 232.38810894 104.015625 204.17578125 C101.77217899 206.41922726 101.49187219 207.49929971 100.72216797 210.51660156 C100.48754349 211.42187592 100.25291901 212.32715027 100.01118469 213.25985718 C99.63826546 214.74191147 99.63826546 214.74191147 99.2578125 216.25390625 C98.99401291 217.27876129 98.73021332 218.30361633 98.4584198 219.35952759 C97.89186594 221.56375754 97.32845915 223.76879825 96.76785278 225.97454834 C95.884556 229.44965821 94.9931938 232.92260468 94.09936523 236.39501953 C92.9229849 240.96559868 91.74893854 245.53676561 90.57666016 250.10839844 C87.87532569 260.62653648 85.06407518 271.11449944 82.24121094 281.60058594 C80.97090662 286.33211116 79.71693791 291.06794471 78.46174622 295.80349731 C77.1982088 300.56558252 75.92895286 305.32613431 74.65890503 310.08648682 C74.02590757 312.46361775 73.3951195 314.84133821 72.76663208 317.21966553 C71.88045467 320.57127515 70.98604214 323.92058937 70.08984375 327.26953125 C69.82450836 328.28069 69.55917297 329.29184875 69.28579712 330.33364868 C67.30895273 337.67222498 64.85113064 343.24838724 60.015625 349.17578125 C59.32599019 350.49738106 58.6548774 351.82908953 58.015625 353.17578125 C53.34895833 353.17578125 48.68229167 353.17578125 44.015625 353.17578125 C43.025625 353.50578125 42.035625 353.83578125 41.015625 354.17578125 C33.21708888 354.91849898 26.73848066 353.30817877 20.015625 349.17578125 C17.83831972 346.40358382 17.015625 343.74662516 17.015625 340.17578125 C15.6234375 339.74265625 15.6234375 339.74265625 14.203125 339.30078125 C11.015625 338.17578125 11.015625 338.17578125 8.015625 336.17578125 C7.60545815 333.56118251 7.38569161 331.15774134 7.28515625 328.52734375 C7.245009 327.75957611 7.20486176 326.99180847 7.16349792 326.20077515 C7.03824773 323.73456189 6.93330949 321.26792307 6.828125 318.80078125 C6.74669411 317.17702009 6.66402529 315.55332051 6.58007812 313.9296875 C5.50333414 292.3446118 5.50333414 292.3446118 6.578125 282.55078125 C7.14473359 276.56204329 6.82971319 270.74846623 6.41552734 264.76391602 C6.12107405 260.47155282 6.02522845 256.29337773 6.203125 251.98828125 C6.25454967 247.76502999 5.44935327 245.38709641 3.09765625 241.921875 C1.05592708 238.62709905 0.14948708 234.85771801 -0.984375 231.17578125 C-1.31953125 230.2425 -1.6546875 229.30921875 -2 228.34765625 C-3.07120301 224.8960021 -3.58339581 221.5627173 -4.109375 217.98828125 C-5.74070889 208.08451347 -9.83286577 199.24796294 -13.984375 190.17578125 C-15.87165389 192.06306014 -15.16046827 195.3547267 -15.1953125 197.8671875 C-15.22140724 199.28728478 -15.24821149 200.70736916 -15.27563477 202.12744141 C-15.28893829 202.87825989 -15.30224182 203.62907837 -15.31594849 204.40264893 C-15.51574299 215.14830792 -15.82157442 225.67429307 -17.546875 236.30078125 C-19.45592836 248.72041691 -19.29110229 261.2020746 -19.296875 273.73828125 C-19.30018829 274.78284485 -19.30350159 275.82740845 -19.30691528 276.90362549 C-19.32730297 287.76972679 -19.17755626 298.39474877 -17.41088867 309.13256836 C-16.98253229 312.18892917 -16.91172256 315.09398623 -16.984375 318.17578125 C-17.644375 318.17578125 -18.304375 318.17578125 -18.984375 318.17578125 C-18.44296875 319.78646484 -18.44296875 319.78646484 -17.890625 321.4296875 C-17.42133673 322.86570962 -16.9526169 324.3019176 -16.484375 325.73828125 C-16.24589844 326.44275391 -16.00742187 327.14722656 -15.76171875 327.87304688 C-14.29559559 332.41802867 -13.54484563 336.34095814 -13.984375 341.17578125 C-16.86704722 343.96836996 -18.935557 344.17035703 -22.921875 344.61328125 C-27.17209961 344.45259223 -29.70844133 342.90572598 -32.984375 340.17578125 C-34.94605405 337.23326268 -35.25919676 336.40624527 -35.51171875 333.0859375 C-35.58197266 332.30154297 -35.65222656 331.51714844 -35.72460938 330.70898438 C-35.85578545 329.06603649 -35.98340846 327.42280093 -36.10742188 325.77929688 C-36.51591569 321.29322515 -36.90509494 318.6409763 -39.984375 315.17578125 C-42.04500748 308.90927507 -41.854457 301.78812639 -42.359375 295.23828125 C-42.42406982 294.4145401 -42.48876465 293.59079895 -42.55541992 292.74209595 C-43.48179679 280.81471166 -44.17939901 268.8835307 -44.7421875 256.93359375 C-44.78899218 255.94374009 -44.78899218 255.94374009 -44.8367424 254.93388939 C-45.17883201 247.68267632 -45.5033855 240.43095885 -45.80615234 233.17797852 C-46.37938715 220.05395767 -47.24400029 207.06971254 -48.96630859 194.04069519 C-50.65673734 180.99474686 -51.5586559 167.00947073 -48.546875 154.11328125 C-47.74535525 150.52621235 -47.74535525 150.52621235 -49.12890625 147.30078125 C-50.8499376 145.57087414 -50.8499376 145.57087414 -52.8359375 144.01171875 C-55.39578705 141.82421095 -57.2377935 139.44739741 -59.234375 136.73828125 C-59.87890625 135.87332031 -60.5234375 135.00835937 -61.1875 134.1171875 C-65.26820361 127.43725312 -66.48798684 121.57690909 -66.359375 113.80078125 C-66.35139893 112.91173096 -66.34342285 112.02268066 -66.33520508 111.10668945 C-66.18001555 103.4866871 -65.50591603 95.93620204 -64.671875 88.36328125 C-64.55440918 87.27289551 -64.43694336 86.18250977 -64.31591797 85.05908203 C-63.156576 75.49858256 -61.36111639 67.81444072 -53.984375 61.17578125 C-51.22530661 59.26282716 -48.34337619 57.70793528 -45.359375 56.17578125 C-43.76505703 55.32528259 -42.17130881 54.47371506 -40.578125 53.62109375 C-39.80082031 53.21020508 -39.02351563 52.79931641 -38.22265625 52.37597656 C-35.05410964 50.67696095 -31.95852528 48.87337677 -28.859375 47.05078125 C-27.90804687 46.49132812 -26.95671875 45.931875 -25.9765625 45.35546875 C-25.31914062 44.96617187 -24.66171875 44.576875 -23.984375 44.17578125 C-20.9595859 46.73044184 -19.77816889 49.54594398 -18.296875 53.17578125 C-17.85988281 54.22765625 -17.42289062 55.27953125 -16.97265625 56.36328125 C-15.984375 59.17578125 -15.984375 59.17578125 -15.984375 62.17578125 C-15.324375 62.17578125 -14.664375 62.17578125 -13.984375 62.17578125 C-14.190625 61.10328125 -14.396875 60.03078125 -14.609375 58.92578125 C-14.98920554 55.12747586 -14.79039752 54.29151475 -12.984375 51.17578125 C-13.53867187 50.716875 -14.09296875 50.25796875 -14.6640625 49.78515625 C-15.38851562 49.1715625 -16.11296875 48.55796875 -16.859375 47.92578125 C-17.57867187 47.3225 -18.29796875 46.71921875 -19.0390625 46.09765625 C-23.37877911 41.81022539 -23.53181203 37.19098634 -24.109375 31.36328125 C-24.19574219 30.58146484 -24.28210938 29.79964844 -24.37109375 28.99414062 C-25.25229768 20.62270326 -25.55513349 12.99177483 -21.984375 5.17578125 C-16.78606122 -1.05935468 -7.5626006 -3.14115891 0 0 Z M86.015625 74.17578125 C86.267152 78.15641055 86.54537597 82.1347575 86.828125 86.11328125 C86.89837891 87.23025391 86.96863281 88.34722656 87.04101562 89.49804688 C87.76789806 99.41272328 89.84041341 106.8865173 95.203125 115.23828125 C95.57115234 115.81771484 95.93917969 116.39714844 96.31835938 116.99414062 C97.20887096 118.39351597 98.11097702 119.78550276 99.015625 121.17578125 C107.24444252 108.83255497 108.61559842 89.59736461 108.015625 75.17578125 C104.43820738 75.17578125 101.41152144 76.0808002 97.9765625 77.03125 C93.630851 77.24337576 90.03319072 75.72163473 86.015625 74.17578125 Z M123.015625 112.17578125 C122.76087429 113.81784909 122.53840863 115.46492889 122.328125 117.11328125 C122.20050781 118.02980469 122.07289063 118.94632812 121.94140625 119.890625 C122.04322034 124.39723832 123.41243425 127.99270718 125.015625 132.17578125 C125.3964624 133.17053467 125.7772998 134.16528809 126.16967773 135.19018555 C127.45207316 138.48553053 128.76122834 141.76908245 130.078125 145.05078125 C130.52478516 146.17742187 130.97144531 147.3040625 131.43164062 148.46484375 C131.86283203 149.5425 132.29402344 150.62015625 132.73828125 151.73046875 C133.12765869 152.70483887 133.51703613 153.67920898 133.91821289 154.68310547 C135.00596547 157.34807652 135.00596547 157.34807652 137.015625 160.17578125 C138.36425031 159.04533048 138.36425031 159.04533048 138.23828125 156.08203125 C137.99955744 151.89389417 136.96013872 148.53251573 135.453125 144.67578125 C132.74035386 137.39836252 130.37785017 130.05037228 128.140625 122.61328125 C127.8305249 121.58332031 127.5204248 120.55335938 127.20092773 119.4921875 C126.46943241 117.05428268 125.740802 114.61557166 125.015625 112.17578125 C124.355625 112.17578125 123.695625 112.17578125 123.015625 112.17578125 Z M73.015625 126.17578125 C72.58089122 132.00614701 72.15402447 137.83702128 71.73388672 143.66845703 C71.59044695 145.64484519 71.44499948 147.62108885 71.29736328 149.59716797 C70.4109067 161.48292256 69.78354526 173.25375884 70.015625 185.17578125 C71.82248196 182.04212802 72.33926386 179.54420593 72.578125 175.94921875 C72.6517627 174.92562256 72.72540039 173.90202637 72.80126953 172.84741211 C72.87200684 171.75952393 72.94274414 170.67163574 73.015625 169.55078125 C73.62633932 161.00880018 74.33252516 152.50826249 75.40625 144.01123047 C76.51002375 135.01460762 76.51002375 135.01460762 75.015625 126.17578125 C74.355625 126.17578125 73.695625 126.17578125 73.015625 126.17578125 Z M-13.984375 131.17578125 C-14.314375 134.14578125 -14.644375 137.11578125 -14.984375 140.17578125 C-11.684375 140.17578125 -8.384375 140.17578125 -4.984375 140.17578125 C-5.314375 137.53578125 -5.644375 134.89578125 -5.984375 132.17578125 C-6.7475 132.38203125 -7.510625 132.58828125 -8.296875 132.80078125 C-10.984375 133.17578125 -10.984375 133.17578125 -13.984375 131.17578125 Z M103.015625 150.17578125 C102.1787915 153.79998249 101.34675266 157.42526762 100.515625 161.05078125 C100.27714844 162.08332031 100.03867187 163.11585938 99.79296875 164.1796875 C99.56738281 165.16582031 99.34179688 166.15195312 99.109375 167.16796875 C98.89990234 168.0791748 98.69042969 168.99038086 98.47460938 169.92919922 C97.94890213 172.12020361 97.94890213 172.12020361 98.015625 174.17578125 C100.11972139 174.20279533 102.22391678 174.22218348 104.328125 174.23828125 C105.49988281 174.24988281 106.67164063 174.26148438 107.87890625 174.2734375 C111.04621695 174.32478023 111.04621695 174.32478023 114.015625 173.17578125 C111.61855186 164.99753173 107.92703728 157.70926847 104.015625 150.17578125 C103.685625 150.17578125 103.355625 150.17578125 103.015625 150.17578125 Z M69.015625 189.17578125 C70.015625 191.17578125 70.015625 191.17578125 70.015625 191.17578125 Z M42.015625 344.17578125 C43.015625 346.17578125 43.015625 346.17578125 43.015625 346.17578125 Z M43.015625 346.17578125 C44.015625 348.17578125 44.015625 348.17578125 44.015625 348.17578125 Z M44.015625 349.17578125 C45.015625 351.17578125 45.015625 351.17578125 45.015625 351.17578125 Z " fill="#000000" transform="translate(435.984375,122.82421875)"/>
<path d="M0 0 C3.76133119 4.16796159 5.14350724 7.09800011 5.0625 12.6875 C5.05347656 13.49574219 5.04445313 14.30398437 5.03515625 15.13671875 C5.02355469 15.75160156 5.01195313 16.36648437 5 17 C5.66 17 6.32 17 7 17 C7.25 24.625 7.25 24.625 5 28 C3.515 28.495 3.515 28.495 2 29 C0.7686103 32.10678206 0.86599865 35.25450403 0.875 38.5625 C0.87242188 39.51253906 0.86984375 40.46257812 0.8671875 41.44140625 C0.89229006 44.1212438 0.89229006 44.1212438 2 47 C3.485 47.99 3.485 47.99 5 49 C5 49.66 5 50.32 5 51 C6.8253125 51.3403125 6.8253125 51.3403125 8.6875 51.6875 C16.90845599 53.52451235 25.82099228 56.05864642 32 62 C33.87007301 65.55841478 34.47909295 69.10611774 35.0625 73.0625 C35.21847656 74.08472656 35.37445313 75.10695313 35.53515625 76.16015625 C36.98029709 88.09774824 37.16318184 99.90722764 37.16796875 111.9140625 C37.17118732 113.82026188 37.17455183 115.72646103 37.17805481 117.63265991 C37.18400519 121.60130386 37.1858985 125.56992613 37.18530273 129.53857422 C37.18520031 134.63192615 37.19895267 139.72514118 37.21607494 144.81846046 C37.22715842 148.74226528 37.22922322 152.66603632 37.22869301 156.58985519 C37.22987479 158.46939957 37.23430759 160.34894477 37.24202538 162.22847366 C37.25176914 164.8420325 37.24897177 167.4552844 37.24291992 170.06884766 C37.24853943 170.84696808 37.25415894 171.6250885 37.25994873 172.42678833 C37.22832917 177.77167083 37.22832917 177.77167083 35 180 C34.67 179.01 34.34 178.02 34 177 C30.37 177 26.74 177 23 177 C22.67 177.99 22.34 178.98 22 180 C21.01 180 20.02 180 19 180 C18.93941406 180.94101562 18.87882812 181.88203125 18.81640625 182.8515625 C18.69072266 184.71941406 18.69072266 184.71941406 18.5625 186.625 C18.44068359 188.46964844 18.44068359 188.46964844 18.31640625 190.3515625 C18 194 18 194 17.50453186 196.87252808 C17.02712875 199.83183537 16.77078519 202.69647601 16.61108398 205.68798828 C16.5211039 207.33228317 16.5211039 207.33228317 16.42930603 209.00979614 C16.36884598 210.18476654 16.30838593 211.35973694 16.24609375 212.5703125 C16.18092056 213.80175995 16.11574738 215.0332074 16.04859924 216.30197144 C15.91158511 218.91264855 15.77637033 221.52342063 15.64282227 224.13427734 C15.4407138 228.06253526 15.22952067 231.99023076 15.01757812 235.91796875 C12.38744096 267.83067933 12.38744096 267.83067933 16.125 299.3828125 C16.41375 300.57648438 16.7025 301.77015625 17 303 C15.625 304.625 15.625 304.625 14 306 C13.21451005 311.73672435 15.48847756 315.75506266 17.9375 320.75 C24.34698996 334.50753231 24.34698996 334.50753231 23 340 C20.25071992 342.67661189 19.0621252 342.99298586 15.125 343.4375 C9.31425102 343.17924449 5.76877271 339.98702361 1.875 335.9375 C-1.23561837 332.1885989 -2.50504722 328.16160501 -3.98828125 323.57421875 C-4.97271035 321.06943583 -5.91152419 319.67087249 -7.75 317.75 C-10 315 -10 315 -10.4375 311.5625 C-10 308 -10 308 -8.99609375 305.125 C-2.23684555 281.89409674 -7.40087928 237.19824143 -18 216 C-20.25424003 225.59548189 -22.49566409 235.1861968 -24.31640625 244.875 C-26.99996291 259.12926708 -30.1825091 273.08947387 -34.0625 287.0625 C-34.27014984 287.8168634 -34.47779968 288.57122681 -34.69174194 289.34844971 C-41.55454937 314.15249481 -41.55454937 314.15249481 -46.6875 320.75 C-48.88413241 323.83715906 -49.34406445 324.96312414 -49.9375 328.5 C-50.83400051 333.49478856 -53.18509311 336.70530768 -57 340 C-60.76716237 342.22909016 -63.61887031 342.38430962 -68 342 C-70.9375 341 -70.9375 341 -73 339 C-73.67264804 331.94097455 -71.82228535 327.61608482 -68.48828125 321.52734375 C-66.28357325 317.05493609 -65.86852029 313.52528002 -66.02294922 308.53588867 C-66.0974887 301.45257017 -65.29604516 294.80839561 -64.1015625 287.83984375 C-63.90654144 286.64750626 -63.71152039 285.45516876 -63.5105896 284.22669983 C-62.89249013 280.4618211 -62.25917397 276.69970078 -61.625 272.9375 C-61.20729302 270.41358341 -60.79061846 267.88949573 -60.375 265.36523438 C-59.43291502 259.6473052 -58.47867021 253.9315012 -57.52032471 248.21627808 C-56.80746276 243.80987143 -56.17636454 239.39211618 -55.55673218 234.97169495 C-54.97257189 231.85359573 -54.02947241 228.99647945 -53 226 C-52.45771304 220.30139124 -53.11808325 214.64050845 -53.79296875 208.98046875 C-53.96205532 206.54626027 -53.98903713 204.23424033 -53.92578125 201.80078125 C-53.90902344 201.0519165 -53.89226563 200.30305176 -53.875 199.53149414 C-53.83419098 198.04180561 -53.7763491 196.55245903 -53.69921875 195.06420898 C-53.56140593 189.74426505 -54.95830918 187.23792891 -58 183 C-58.20703125 180.76171875 -58.20703125 180.76171875 -57.8125 178.6875 C-57.68617187 177.92953125 -57.55984375 177.1715625 -57.4296875 176.390625 C-57.21699219 175.20726562 -57.21699219 175.20726562 -57 174 C-56.80072768 172.31384964 -56.61275446 170.62631567 -56.4375 168.9375 C-56.293125 167.638125 -56.14875 166.33875 -56 165 C-62.09060019 161.65999344 -68.54079635 163.66949502 -75 165 C-74.7284568 154.42181694 -74.39394077 144.37699921 -71.625 134.11328125 C-70.6459011 129.23614483 -70.91108192 124.43813982 -71.02734375 119.484375 C-70.99727667 115.65296945 -70.32474932 112.39221682 -69.421875 108.6953125 C-68.87853848 105.22399585 -69.09893898 101.9462355 -69.25 98.4375 C-69.48411561 90.59834311 -67.43951768 84.42801055 -64.58203125 77.20703125 C-62.50856585 71.93569608 -61.34171774 66.50330531 -60.15234375 60.9765625 C-59 58 -59 58 -57.0625 56.265625 C-51.60093059 54.00854784 -45.84386212 52.78224597 -40.10351562 51.42578125 C-34.09788657 49.90299802 -30.49546342 48.25734096 -26 44 C-25.34 44 -24.68 44 -24 44 C-24.02548803 36.35358958 -24.60316776 31.62568968 -29.69921875 25.82421875 C-31.82423786 22.84408685 -31.44239841 20.53918726 -31 17 C-30.01 17 -29.02 17 -28 17 C-28.04640625 16.35933594 -28.0928125 15.71867187 -28.140625 15.05859375 C-28.40589289 8.70163828 -27.8812082 5.1068529 -24 0 C-16.0186625 -6.31855885 -8.0141328 -6.55701775 0 0 Z M0 47 C-1.15810923 48.38973107 -2.27627999 49.81285568 -3.375 51.25 C-3.98085937 52.03890625 -4.58671875 52.8278125 -5.2109375 53.640625 C-6.81437742 55.75520516 -8.41086547 57.87465443 -10 60 C-9.484375 60.7425 -8.96875 61.485 -8.4375 62.25 C-6.81887705 65.34649609 -7.02258003 65.85053566 -8 69 C-7.34 69.66 -6.68 70.32 -6 71 C-5.01249341 68.31531083 -4.03487645 65.62766735 -3.0625 62.9375 C-2.78470703 62.18533203 -2.50691406 61.43316406 -2.22070312 60.65820312 C-0.57587412 56.08042602 0.4921843 51.84031927 1 47 C0.67 47 0.34 47 0 47 Z M-23 49 C-23.48350422 56.89723556 -21.67664721 64.33532703 -20 72 C-18.41581527 70.15188026 -18.41581527 70.15188026 -17 68 C-17.165 67.175 -17.33 66.35 -17.5 65.5 C-18 63 -18 63 -16.5625 60.6875 C-16.046875 60.130625 -15.53125 59.57375 -15 59 C-16.67028292 55.05205855 -19.1795565 52.18203882 -22 49 C-22.33 49 -22.66 49 -23 49 Z " fill="#000000" transform="translate(91,133)"/>
<path d="M0 0 C3.8512686 4.91255569 6.26624266 9.57360441 6 16 C5.10487653 18.94082168 3.74600153 21.51057945 2.25 24.1875 C1.8890625 24.87263672 1.528125 25.55777344 1.15625 26.26367188 C-0.3969884 29.18724922 -1.98822232 31.98235865 -3.828125 34.73828125 C-5.1834149 36.8957604 -5.1834149 36.8957604 -4.91015625 39.16015625 C-3.76199628 41.48111481 -2.68183848 42.16819702 -0.4375 43.4375 C0.63757813 44.07171875 0.63757813 44.07171875 1.734375 44.71875 C3.22009564 45.55895064 4.70958185 46.39253464 6.203125 47.21875 C10.75411715 49.84821213 13.43982897 51.73442278 15 57 C15.4834996 62.14183229 15.0564638 67.27195817 14.6953125 72.41015625 C13.74676874 86.35160997 13.85771036 99.10316676 20 112 C20.51433594 113.12019531 21.02867187 114.24039063 21.55859375 115.39453125 C22.60593828 117.67256838 23.66249163 119.94640627 24.73046875 122.21484375 C27.52011255 128.33489307 28.32257158 134.92752713 26.2109375 141.4296875 C24.47410852 145.04918606 23.42090449 146.71939701 20 149 C18.8584263 151.28734436 17.97854949 153.61836071 17.0625 156.00390625 C16 158 16 158 13 159 C12.34 158.67 11.68 158.34 11 158 C11.01160156 159.16917969 11.02320313 160.33835937 11.03515625 161.54296875 C11.04453913 163.09114423 11.0536388 164.63932145 11.0625 166.1875 C11.07087891 166.95642578 11.07925781 167.72535156 11.08789062 168.51757812 C11.09111328 169.26845703 11.09433594 170.01933594 11.09765625 170.79296875 C11.10289307 171.4789917 11.10812988 172.16501465 11.11352539 172.87182617 C11 175 11 175 10.50927734 177.17260742 C9.77335914 181.25825878 9.80322699 185.30137142 9.75390625 189.4453125 C9.72090493 191.34765976 9.68769458 193.25000341 9.65429688 195.15234375 C9.60744073 198.11569117 9.56311933 201.07903137 9.52319336 204.04248047 C9.34815198 216.45469644 8.75071 228.66249883 7.24458313 240.987854 C6.01981024 251.06386323 6.08146583 260.0835735 7.80908203 270.07226562 C9.07525384 277.62608241 9.46275929 285.10258995 9.62060547 292.75415039 C9.63416273 299.18363412 9.63416273 299.18363412 12 305 C14.70361242 306.46800395 14.70361242 306.46800395 17.875 307.4375 C23.2154706 309.44818078 25.59716099 310.83389613 28 316 C24.32842571 320.21551123 21.65697372 320.80703543 16.203125 321.203125 C8.732388 321.32170813 2.69706936 320.34853468 -4 317 C-6.76318085 316.96929799 -9.51183969 317.0671105 -12.2734375 317.16015625 C-15.10709891 316.99370909 -16.54565384 316.32804559 -19 315 C-18.97905273 314.42483643 -18.95810547 313.84967285 -18.93652344 313.25708008 C-18.39351173 295.74838936 -20.2223825 279.25668746 -23 262 C-24.32 261.67 -25.64 261.34 -27 261 C-26.71125 262.051875 -26.4225 263.10375 -26.125 264.1875 C-22.76003724 277.91174099 -20.39962825 292.69911709 -26 306 C-26.17023905 308.27390731 -26.12566202 310.47986078 -26.05078125 312.7578125 C-25.95533593 316.9720903 -25.86800852 321.40492109 -28.375 324.9375 C-31.63256034 327.0674433 -34.65465594 327.18840688 -38.4375 327.25 C-39.38496094 327.27578125 -40.33242187 327.3015625 -41.30859375 327.328125 C-44.47587349 326.94198349 -45.80861422 326.30887266 -48 324 C-48.4609375 321.84375 -48.4609375 321.84375 -48.375 319.5 C-48.36210937 318.7265625 -48.34921875 317.953125 -48.3359375 317.15625 C-48 315 -48 315 -46 312 C-45.46119083 302.17571288 -48.91709715 291.24870855 -52 282 C-52.22998544 279.81655795 -52.411031 277.62778985 -52.5625 275.4375 C-52.64628906 274.28121094 -52.73007813 273.12492187 -52.81640625 271.93359375 C-53.03296486 267.29371034 -53 262.64493441 -53 258 C-64.55 258 -76.1 258 -88 258 C-88 235.56 -88 213.12 -88 190 C-80.74 190 -73.48 190 -66 190 C-65.34 188.02 -64.68 186.04 -64 184 C-63.63329413 183.29865275 -63.26658827 182.59730551 -62.8887701 181.87470531 C-61.88038753 179.74769839 -61.75988221 178.34696641 -61.77967834 176.00471497 C-61.78205757 174.82640106 -61.78205757 174.82640106 -61.78448486 173.62428284 C-61.79638855 172.77091843 -61.80829224 171.91755402 -61.82055664 171.03833008 C-61.82508347 170.13180695 -61.82961029 169.22528381 -61.83427429 168.29129028 C-61.84523588 166.31990007 -61.86074301 164.34853112 -61.88023567 162.3772068 C-61.9105163 159.23213476 -61.92724792 156.08725035 -61.94029236 152.94206238 C-61.97989451 143.99760752 -62.04404462 135.05337492 -62.11645508 126.10913086 C-62.64245503 58.61571855 -62.64245503 58.61571855 -54.50097656 48.05566406 C-49.90946154 44.37744009 -45.18142304 41.97599305 -39.75 39.75 C-38.16047406 39.08045692 -36.57189057 38.40867091 -34.984375 37.734375 C-34.29053711 37.44788086 -33.59669922 37.16138672 -32.88183594 36.86621094 C-30.7414102 35.94025613 -30.7414102 35.94025613 -28 34 C-22.03208247 42.98217029 -17.69292056 51.88643348 -14 62 C-13.67 59.03 -13.34 56.06 -13 53 C-14.32 52.34 -15.64 51.68 -17 51 C-15.84826645 48.53199953 -14.95216435 46.95216435 -13 45 C-13.90363281 44.31292969 -14.80726563 43.62585938 -15.73828125 42.91796875 C-16.92977653 42.00792905 -18.12117786 41.09776634 -19.3125 40.1875 C-19.90740234 39.73568359 -20.50230469 39.28386719 -21.11523438 38.81835938 C-28.53685767 33.13812255 -32.9698197 27.19955552 -34.34375 17.59765625 C-34.01376682 9.99429372 -29.16461553 3.4260986 -24.15625 -1.99609375 C-16.42908515 -9.06238266 -7.25811883 -7.45973324 0 0 Z M-7 41 C-7.33 41.99 -7.66 42.98 -8 44 C-8.99 44.495 -8.99 44.495 -10 45 C-9.3709375 45.36738281 -8.741875 45.73476562 -8.09375 46.11328125 C-5.28968041 48.64008276 -5.14576827 50.49557482 -4.5 54.1875 C-3.56786017 59.30539807 -2.43073733 64.27352791 -1.078125 69.30078125 C1.28266822 78.43481229 2.5413173 87.65588024 3.75 97 C3.97182409 98.66156964 4.19447659 100.3230289 4.41796875 101.984375 C4.95482056 105.98838202 5.48061619 109.99369128 6 114 C6.33 114 6.66 114 7 114 C7.06183422 110.42048546 7.05903438 106.8439859 7.02099609 103.26416016 C7.00626262 101.67534364 6.99946524 100.08644315 6.99853516 98.49755859 C6.95530152 87.22593261 6.09913399 76.62438284 3.25 65.6875 C3.01007324 64.76404785 2.77014648 63.8405957 2.52294922 62.88916016 C0.72676133 56.50927681 -1.88691104 50.83607139 -5 45 C-5.6704741 43.66857719 -6.33843886 42.3358739 -7 41 Z M-60 187 C-60.66 188.32 -61.32 189.64 -62 191 C-59.69 191 -57.38 191 -55 191 C-55 189.68 -55 188.36 -55 187 C-56.65 187 -58.3 187 -60 187 Z " fill="#000000" transform="translate(210,145)"/>
<path d="M0 0 C0.32547757 23.94847267 0.15317308 47.21981965 -3 71 C5.58 68.69 14.16 66.38 23 64 C22.855625 61.70289063 22.71125 59.40578125 22.5625 57.0390625 C21.4388759 38.6667652 20.67806002 20.41496689 21 2 C21.56372314 2.29712891 22.12744629 2.59425781 22.70825195 2.90039062 C24.99974177 3.9998761 27.25262595 4.80716736 29.66796875 5.59375 C40.5129546 9.2857228 48.29060389 12.29093868 55 22 C56.38139764 23.74072072 57.77793282 25.46951035 59.1875 27.1875 C59.91582031 28.09113281 60.64414062 28.99476563 61.39453125 29.92578125 C65.11360902 34.4086648 69.17653528 38.59255095 73.21557617 42.78588867 C77.38610394 47.16176346 80.618006 50.66983659 81.625 56.8125 C81.4075357 62.32159552 77.76727204 65.35045521 74 69 C73.401875 69.598125 72.80375 70.19625 72.1875 70.8125 C71.02732548 71.97267452 69.86069431 73.12643056 68.6875 74.2734375 C66.99443846 76.00569028 65.46948225 77.81241756 63.9375 79.6875 C61.27414563 82.817118 58.72397169 85.13801415 55 87 C51.8125 86.59375 51.8125 86.59375 49 86 C49.45383057 86.66765381 49.90766113 87.33530762 50.37524414 88.02319336 C57.57876293 100.22452815 58.5018432 113.71191661 60.18914795 127.55645752 C60.52248265 130.2489401 60.87743572 132.93837007 61.23347378 135.62793064 C61.96996126 141.19257444 62.68973787 146.75934631 63.37670898 152.33032227 C63.49771469 153.30735611 63.6187204 154.28438995 63.74339294 155.29103088 C63.98866713 157.88036033 64.04718604 160.40103424 64 163 C63.27554688 163.25394531 62.55109375 163.50789062 61.8046875 163.76953125 C56.69024378 165.59027321 51.83722977 167.51936935 47 170 C46.34 170 45.68 170 45 170 C45.31606201 170.57041016 45.63212402 171.14082031 45.95776367 171.72851562 C47.02041672 174.04449688 47.3921136 175.82445242 47.67578125 178.34375 C47.77890625 179.17140869 47.88203125 179.99906738 47.98828125 180.85180664 C48.14876953 182.16266235 48.14876953 182.16266235 48.3125 183.5 C49.10142744 189.38705626 49.93415937 194.64572533 52.5 200.0625 C56.782351 209.19303817 57.50829335 219.63058417 58.44921875 229.578125 C59.37683748 239.23948269 61.31820627 247.41425628 66.109375 255.984375 C71.1526489 265.06226803 72.24950559 275.57773397 72.375 285.8125 C72.38885742 286.50021484 72.40271484 287.18792969 72.41699219 287.89648438 C72.3984375 289.83203125 72.3984375 289.83203125 72 293 C67.98141405 295.6790573 64.72358279 295.69610694 60 295 C57.12970131 293.20606332 55.50868362 292.01736724 54 289 C53.96249784 287.25294793 53.98715257 285.50437538 54.04296875 283.7578125 C54.06423828 282.69046875 54.08550781 281.623125 54.10742188 280.5234375 C54.15989471 278.29654152 54.2245544 276.06989173 54.30273438 273.84375 C54.5048148 261.29979485 49.97704796 251.37852469 44.5 240.3125 C43.55091684 238.37166374 42.60298338 236.43026481 41.65625 234.48828125 C41.20765625 233.56998535 40.7590625 232.65168945 40.296875 231.70556641 C38.44462456 227.84136471 36.70549957 223.93083443 35 220 C26.09497007 235.00022032 21.95383397 246.64656179 21.48242188 264.23828125 C20.87253694 281.70630646 20.87253694 281.70630646 16 288 C12.2064269 289.89678655 7.6091654 289.37134586 3.5625 288.4375 C0.94420586 286.02866939 1.23276671 283.46253797 1 280 C1.46672204 276.93876638 2.30009062 274.02013978 3.16796875 271.05078125 C3.4040535 270.19808151 3.64013824 269.34538177 3.88337708 268.46684265 C4.63864815 265.74496233 5.41165013 263.02857934 6.1875 260.3125 C13.77366583 233.51229322 17.95733326 207.82273872 19 180 C18.278125 180.350625 17.55625 180.70125 16.8125 181.0625 C13.47920695 182.17359768 12.24435116 182.36021128 9 181 C7.60813734 178.26661117 6.63213471 175.8517011 5.6953125 172.9609375 C5.41014771 172.13567566 5.12498291 171.31041382 4.83117676 170.46014404 C3.90843573 167.77163683 3.01623369 165.07409845 2.125 162.375 C1.50317659 160.53973156 0.8799657 158.70493264 0.25537109 156.87060547 C-12 120.68113038 -12 120.68113038 -12 116 C-13.27875 116.04125 -14.5575 116.0825 -15.875 116.125 C-18.0546875 116.1953125 -18.0546875 116.1953125 -20 116 C-20.66 115.34 -21.32 114.68 -22 114 C-21.55761615 121.53216715 -20.86094772 128.6802723 -19 136 C-20.32 136.33 -21.64 136.66 -23 137 C-23.66 136.01 -24.32 135.02 -25 134 C-25.99 137.96 -26.98 141.92 -28 146 C-32 145 -32 145 -34 143 C-35.15770857 136.92958031 -35.20846504 131.04232518 -34 125 C-35.98 124.67 -37.96 124.34 -40 124 C-39.47999904 106.65343654 -38.38929217 89.38954949 -36.953125 72.09570312 C-36.7335076 69.43807117 -36.51722077 66.78047895 -36.30761719 64.12207031 C-34.3125895 38.82972272 -34.3125895 38.82972272 -32.5234375 27.1796875 C-32.41569 26.46442902 -32.3079425 25.74917053 -32.19692993 25.01223755 C-30.09930282 12.45000988 -30.09930282 12.45000988 -26.33984375 8.0625 C-22.8595708 6.48214233 -19.29807816 5.75285777 -15.5625 5 C-10.59081528 3.99286043 -4.51256069 0 0 0 Z M45 43 C41.67675959 47.29251887 37.81001231 52.83696167 38.14453125 58.40625 C39.29978392 61.90893389 40.99926288 62.83496718 44.0625 64.8125 C44.98160156 65.41707031 45.90070313 66.02164063 46.84765625 66.64453125 C47.91306641 67.31548828 47.91306641 67.31548828 49 68 C52.52238047 66.43632643 55.27123994 64.30504111 58.25 61.875 C59.14203125 61.15054688 60.0340625 60.42609375 60.953125 59.6796875 C61.62859375 59.12539062 62.3040625 58.57109375 63 58 C62.66002425 55.12963329 62.43783817 53.45385663 60.3984375 51.33984375 C59.73070312 50.87707031 59.06296875 50.41429687 58.375 49.9375 C57.65828125 49.43863281 56.9415625 48.93976563 56.203125 48.42578125 C50.96566575 44.62917845 50.96566575 44.62917845 45 43 Z M-22 99 C-21 101 -21 101 -21 101 Z " fill="#000000" transform="translate(288,182)"/>
<path d="M0 0 C4.83610509 3.69638606 6.97542021 7.94958599 7.83984375 13.90625 C8.42127164 22.22422854 8.96944287 31.04769826 5.83984375 38.90625 C3.95703125 40.4453125 3.95703125 40.4453125 1.71484375 41.53125 C-4.74535924 45.34245565 -7.67222671 51.50062464 -11.16015625 57.90625 C-17.20508433 53.33569462 -23.12325634 47.84646964 -25.09765625 40.34375 C-25.11828125 39.539375 -25.13890625 38.735 -25.16015625 37.90625 C-25.82015625 39.22625 -26.48015625 40.54625 -27.16015625 41.90625 C-29.65726607 41.56182106 -30.9817029 41.05921001 -32.91015625 39.40625 C-36.5233872 32.1797881 -33.51091184 23.14733247 -31.16015625 15.90625 C-28.05888169 7.82930418 -24.1249694 2.50149324 -16.41015625 -1.53125 C-10.8218514 -2.49845661 -5.16373576 -2.61454975 0 0 Z " fill="#000000" transform="translate(312.16015625,138.09375)"/>
<path d="M0 0 C-0.3916035 5.95507399 -1.37124595 10.62819824 -4 16 C-4.66 16 -5.32 16 -6 16 C-5.484375 16.928125 -4.96875 17.85625 -4.4375 18.8125 C-3 22 -3 22 -4 25 C-8.875714 24.54644521 -11.64291494 23.62928114 -15 20 C-16.84444645 16.19004304 -18.03636799 12.56382361 -17.9375 8.3125 C-16.15292992 3.91056048 -14.46065206 0.77901443 -10.1875 -1.5 C-6.28141828 -2.1127187 -3.68646194 -1.3271263 0 0 Z M-8 8 C-7 12 -7 12 -7 12 Z " fill="#000000" transform="translate(31,302)"/>
<path d="M0 0 C3.3 0.33 6.6 0.66 10 1 C12.11566042 5.23132084 12.74965364 9.33752005 12 14 C9.96960499 17.84324769 7.8819364 20.95120023 4 23 C-2.93370166 24.53314917 -2.93370166 24.53314917 -6 23 C-6.375 20.75 -6.375 20.75 -6 18 C-5.01 17.360625 -4.02 16.72125 -3 16.0625 C-2.01 15.381875 -1.02 14.70125 0 14 C0.59271443 10.51780274 0.234204 8.55948732 -1.125 5.3125 C-1.41375 4.549375 -1.7025 3.78625 -2 3 C-1.34 2.01 -0.68 1.02 0 0 Z " fill="#000000" transform="translate(115,313)"/>
</svg>
