<svg xmlns="http://www.w3.org/2000/svg" viewBox="0 0 800 600" width="800" height="600">
  <!-- Background elements -->
  <rect x="0" y="0" width="800" height="600" fill="none"/>
  
  <!-- Document stack -->
  <g transform="translate(400, 300)">
    <!-- Base document -->
    <rect x="-150" y="-180" width="300" height="360" rx="10" fill="#f0f4f8" stroke="#2d3748" stroke-width="2"/>
    
    <!-- Tax form elements -->
    <rect x="-120" y="-150" width="240" height="20" rx="4" fill="#4299e1"/>
    <rect x="-120" y="-120" width="180" height="10" rx="2" fill="#a0aec0"/>
    <rect x="-120" y="-100" width="240" height="10" rx="2" fill="#a0aec0"/>
    <rect x="-120" y="-80" width="200" height="10" rx="2" fill="#a0aec0"/>
    
    <rect x="-120" y="-50" width="100" height="40" rx="4" fill="#e2e8f0"/>
    <rect x="0" y="-50" width="120" height="40" rx="4" fill="#e2e8f0"/>
    
    <rect x="-120" y="10" width="240" height="1" fill="#a0aec0"/>
    <rect x="-120" y="30" width="240" height="1" fill="#a0aec0"/>
    <rect x="-120" y="50" width="240" height="1" fill="#a0aec0"/>
    <rect x="-120" y="70" width="240" height="1" fill="#a0aec0"/>
    <rect x="-120" y="90" width="240" height="1" fill="#a0aec0"/>
    
    <rect x="-120" y="120" width="80" height="40" rx="4" fill="#4299e1"/>
    <text x="-80" y="145" font-family="Arial" font-size="16" fill="white" text-anchor="middle">SUBMIT</text>
  </g>
  
  <!-- Calculator -->
  <g transform="translate(580, 200)">
    <rect x="-60" y="-80" width="120" height="160" rx="10" fill="#2c5282" stroke="#2d3748" stroke-width="2"/>
    <rect x="-50" y="-70" width="100" height="30" rx="4" fill="#e2e8f0"/>
    <text x="0" y="-50" font-family="Arial" font-size="16" fill="#2d3748" text-anchor="middle">$1,250.00</text>
    
    <!-- Calculator buttons -->
    <g>
      <rect x="-50" y="-30" width="20" height="20" rx="2" fill="#e2e8f0"/>
      <text x="-40" y="-15" font-family="Arial" font-size="14" fill="#2d3748" text-anchor="middle">7</text>
      
      <rect x="-20" y="-30" width="20" height="20" rx="2" fill="#e2e8f0"/>
      <text x="-10" y="-15" font-family="Arial" font-size="14" fill="#2d3748" text-anchor="middle">8</text>
      
      <rect x="10" y="-30" width="20" height="20" rx="2" fill="#e2e8f0"/>
      <text x="20" y="-15" font-family="Arial" font-size="14" fill="#2d3748" text-anchor="middle">9</text>
      
      <rect x="40" y="-30" width="20" height="20" rx="2" fill="#4299e1"/>
      <text x="50" y="-15" font-family="Arial" font-size="14" fill="white" text-anchor="middle">÷</text>
    </g>
    
    <g>
      <rect x="-50" y="0" width="20" height="20" rx="2" fill="#e2e8f0"/>
      <text x="-40" y="15" font-family="Arial" font-size="14" fill="#2d3748" text-anchor="middle">4</text>
      
      <rect x="-20" y="0" width="20" height="20" rx="2" fill="#e2e8f0"/>
      <text x="-10" y="15" font-family="Arial" font-size="14" fill="#2d3748" text-anchor="middle">5</text>
      
      <rect x="10" y="0" width="20" height="20" rx="2" fill="#e2e8f0"/>
      <text x="20" y="15" font-family="Arial" font-size="14" fill="#2d3748" text-anchor="middle">6</text>
      
      <rect x="40" y="0" width="20" height="20" rx="2" fill="#4299e1"/>
      <text x="50" y="15" font-family="Arial" font-size="14" fill="white" text-anchor="middle">×</text>
    </g>
    
    <g>
      <rect x="-50" y="30" width="20" height="20" rx="2" fill="#e2e8f0"/>
      <text x="-40" y="45" font-family="Arial" font-size="14" fill="#2d3748" text-anchor="middle">1</text>
      
      <rect x="-20" y="30" width="20" height="20" rx="2" fill="#e2e8f0"/>
      <text x="-10" y="45" font-family="Arial" font-size="14" fill="#2d3748" text-anchor="middle">2</text>
      
      <rect x="10" y="30" width="20" height="20" rx="2" fill="#e2e8f0"/>
      <text x="20" y="45" font-family="Arial" font-size="14" fill="#2d3748" text-anchor="middle">3</text>
      
      <rect x="40" y="30" width="20" height="20" rx="2" fill="#4299e1"/>
      <text x="50" y="45" font-family="Arial" font-size="14" fill="white" text-anchor="middle">-</text>
    </g>
    
    <g>
      <rect x="-50" y="60" width="50" height="20" rx="2" fill="#e2e8f0"/>
      <text x="-25" y="75" font-family="Arial" font-size="14" fill="#2d3748" text-anchor="middle">0</text>
      
      <rect x="10" y="60" width="20" height="20" rx="2" fill="#e2e8f0"/>
      <text x="20" y="75" font-family="Arial" font-size="14" fill="#2d3748" text-anchor="middle">.</text>
      
      <rect x="40" y="60" width="20" height="20" rx="2" fill="#4299e1"/>
      <text x="50" y="75" font-family="Arial" font-size="14" fill="white" text-anchor="middle">+</text>
    </g>
  </g>
  
  <!-- Coins/Money -->
  <g transform="translate(200, 400)">
    <circle cx="0" cy="0" r="40" fill="#ecc94b" stroke="#d69e2e" stroke-width="2"/>
    <text x="0" y="5" font-family="Arial" font-size="24" font-weight="bold" fill="#744210" text-anchor="middle">$</text>
    
    <circle cx="-60" cy="20" r="30" fill="#ecc94b" stroke="#d69e2e" stroke-width="2"/>
    <text x="-60" y="25" font-family="Arial" font-size="18" font-weight="bold" fill="#744210" text-anchor="middle">$</text>
    
    <circle cx="50" cy="30" r="35" fill="#ecc94b" stroke="#d69e2e" stroke-width="2"/>
    <text x="50" y="35" font-family="Arial" font-size="20" font-weight="bold" fill="#744210" text-anchor="middle">$</text>
  </g>
  
  <!-- Security shield -->
  <g transform="translate(250, 180)">
    <path d="M0,-60 L50,-20 L50,40 C50,60 30,80 0,90 C-30,80 -50,60 -50,40 L-50,-20 Z" fill="#4299e1" stroke="#2c5282" stroke-width="2"/>
    <path d="M0,-40 L30,-10 L30,30 C30,45 15,60 0,70 C-15,60 -30,45 -30,30 L-30,-10 Z" fill="#2c5282"/>
    <text x="0" y="20" font-family="Arial" font-size="40" font-weight="bold" fill="white" text-anchor="middle">✓</text>
  </g>
</svg>